<?xml version="1.0" encoding="iso-8859-1"?>
<!-- Uploaded to: SVG Repo, www.svgrepo.com, Generator: SVG Repo Mixer Tools -->
<!DOCTYPE svg PUBLIC "-//W3C//DTD SVG 1.1//EN" "http://www.w3.org/Graphics/SVG/1.1/DTD/svg11.dtd">
<svg fill="#000000" version="1.1" id="Capa_1" xmlns="http://www.w3.org/2000/svg" xmlns:xlink="http://www.w3.org/1999/xlink" 
	 width="800px" height="800px" viewBox="0 0 414.862 414.863"
	 xml:space="preserve">
<g>
	<g>
		<path d="M166.336,275.767c-5.748,0-11.358,1.582-16.23,4.576c-2.056,1.264-2.698,3.957-1.436,6.012
			c1.27,2.059,3.964,2.699,6.015,1.436c3.492-2.148,7.522-3.283,11.65-3.283c12.291,0,22.291,10,22.291,22.295
			c0,12.293-10,22.293-22.291,22.293c-12.291,0-22.294-10-22.294-22.293c0-2.414-1.957-4.371-4.372-4.371H98.822
			c-2.417,0-4.372,1.957-4.372,4.371s1.955,4.371,4.372,4.371h36.823c2.137,15.045,15.068,26.664,30.693,26.664
			c17.111,0,31.034-13.922,31.034-31.035C197.37,289.689,183.448,275.767,166.336,275.767z"/>
		<path d="M267.312,117.128c-2.086,0-4.511-3.515-4.511-8.045V93.807c0-9.257-7.531-16.786-16.788-16.786H16.79
			C7.531,77.021,0,84.55,0,93.807V294.39c0,9.254,6.33,16.785,14.111,16.785h5.714c2.135,15.047,15.065,26.666,30.692,26.666
			c17.113,0,31.037-13.924,31.037-31.037s-13.924-31.035-31.037-31.035c-3.369,0-6.687,0.557-9.839,1.611l0.058-53.91
			c0.003-2.426,1.981-4.4,4.406-4.4l0,0l159.006,0.07c2.436,0.001,4.424,1.984,4.434,4.42l0.082,20.707
			c0.011,2.408,1.966,4.355,4.372,4.355h0.018c2.414-0.012,4.364-1.977,4.354-4.389l-0.082-20.711
			c-0.028-7.235-5.938-13.125-13.174-13.128l-116.589-0.051l0.159-48.997c0.009-2.436,1.997-4.42,4.433-4.424l69.801-0.093h0.005
			c1.159,0,2.252,0.455,3.079,1.283c0.827,0.829,1.28,1.925,1.275,3.086l-0.114,31.702c-0.009,2.415,1.941,4.38,4.355,4.389h0.016
			c2.408,0,4.363-1.948,4.372-4.355l0.114-31.702c0.016-3.504-1.343-6.806-3.828-9.293c-2.479-2.485-5.771-3.853-9.268-3.853h-0.021
			l-69.799,0.093c-7.234,0.011-13.139,5.905-13.163,13.139l-0.159,49.022l-33.674-0.016h-0.007c-7.237,0-13.135,5.889-13.146,13.131
			l-0.065,60.137c0,4.707,4.88,5.463,6.937,4.199c3.497-2.148,7.524-3.283,11.652-3.283c12.292,0,22.294,10.002,22.294,22.293
			c0,12.293-10.002,22.295-22.294,22.295c-12.294,0-22.294-10.002-22.294-22.295c0-2.414-1.957-4.371-4.372-4.371h-9.739
			c-2.859,0-5.368-3.758-5.368-8.043V93.807c0-4.436,3.605-8.043,8.047-8.043h229.225c4.437,0,8.045,3.607,8.045,8.043v15.275
			c0,9.415,5.821,16.788,13.255,16.788c2.084,0,4.51,3.515,4.51,8.045V294.39c0,4.434-3.607,8.043-8.044,8.043h-47.89
			c-2.415,0-4.371,1.957-4.371,4.371c0,2.416,1.956,4.371,4.371,4.371h47.89c9.255,0,16.786-7.531,16.786-16.785V133.916
			C280.565,124.5,274.744,117.128,267.312,117.128z"/>
		<path d="M407.286,215.232l-36.694-65.112c-4.637-8.229-15.665-14.674-25.107-14.674h-23.576c-10.288,0-18.659,8.372-18.659,18.659
			v61.438c0,10.289,8.371,18.66,18.659,18.66h50.009c2.415,0,4.372-1.957,4.372-4.373c0-2.414-1.957-4.371-4.372-4.371h-50.009
			c-5.468,0-9.916-4.447-9.916-9.916v-61.438c0-5.468,4.448-9.917,9.916-9.917h23.576c6.247,0,14.422,4.779,17.492,10.224
			l36.694,65.11c3.495,6.207,6.448,17.467,6.448,24.594v48.578c0,5.469-4.448,9.918-9.918,9.918h-15.544
			c-2.415,0-4.372,1.957-4.372,4.371c0,2.416,1.957,4.371,4.372,4.371h15.544c10.291,0,18.661-8.371,18.661-18.66v-48.578
			C414.86,235.46,411.536,222.773,407.286,215.232z"/>
		<path d="M337.292,276.125c-5.716,0-11.294,1.574-16.138,4.555c-2.055,1.264-2.697,3.955-1.432,6.014
			c1.268,2.055,3.96,2.697,6.014,1.43c3.462-2.129,7.459-3.254,11.554-3.254c12.196,0,22.118,9.922,22.118,22.115
			s-9.923,22.113-22.118,22.113c-12.194,0-22.112-9.92-22.112-22.113c0-2.414-1.956-4.371-4.371-4.371h-16.43
			c-2.415,0-4.371,1.957-4.371,4.371c0,2.416,1.956,4.371,4.371,4.371h12.406c2.133,14.945,14.981,26.484,30.509,26.484
			c17.016,0,30.86-13.84,30.86-30.855C368.152,289.97,354.308,276.125,337.292,276.125z"/>
	</g>
</g>
</svg>